<?xml version="1.0" encoding="UTF-8"?>
<svg width="24px" height="24px" viewBox="0 0 24 24" version="1.1" xmlns="http://www.w3.org/2000/svg" xmlns:xlink="http://www.w3.org/1999/xlink">
    <title>Bits/Icons/Maps/icon-place_outline Copy</title>
    <g id="Bits/Icons/Maps/icon-place_outline-Copy" stroke="none" stroke-width="1" fill="none" fill-rule="evenodd">
        <rect id="Bounds" x="0" y="0" width="24" height="24"></rect>
        <path d="M12,2 C15.87,2 19,5.13 19,9 C19,14.25 12,22 12,22 C12,22 5,14.25 5,9 C5,5.13 8.13,2 12,2 Z M12,4 C9.24,4 7,6.24 7,9 C7,11.85 9.92,16.21 12,18.88 C14.12,16.19 17,11.88 17,9 C17,6.24 14.76,4 12,4 Z M12,6.5 C13.3807119,6.5 14.5,7.61928813 14.5,9 C14.5,10.3807119 13.3807119,11.5 12,11.5 C10.6192881,11.5 9.5,10.3807119 9.5,9 C9.5,7.61928813 10.6192881,6.5 12,6.5 Z" id="place_outline" fill="#fff"></path>
    </g>
</svg>
